# xmcd
#
# Track frame offsets:
#	150
#	13908
#	25602
#	38235
#	49532
#	60341
#	81363
#	92059
#	104333
#	117787
#	128495
#	138119
#	152787
#	164842
#	183273
#	194282
#	205771
#	220873
#	232620
#	243915
#
# Disc length: 3435 seconds
#
# Revision: 1
# Processed by: cddbd v1.4PL0 Copyright (c) Steve Scherf et al.
# Submitted via: audiograbber 1.81.03
#
DISCID=fc0d6914
DTITLE=Various Artist - Country Classics [CD1]
DYEAR=1900
DGENRE=
TTITLE0=Patti Page - Tennessee Waltz
TTITLE1=Tennessee Ernie Ford - The Shotgun Boogie
TTITLE2=Johnny Cash - Folsom Prison Blues
TTITLE3=Don Gibson - Oh Lonesome Me
TTITLE4=Jim Reeves - He'll Have To Go
TTITLE5=Marty Robbins - El Pasa
TTITLE6=Leroy Van Dyke - Walk On By
TTITLE7=Patsy Cline - Crazy
TTITLE8=Claude King - Wolverton Mountain
TTITLE9=Dave Dudley - Six Days On The Road
TTITLE10=George Jones - The Race Is On
TTITLE11=Jeannie C Riley - Harper Valley PTA
TTITLE12=Tammy Wynette - Stand By Your Man
TTITLE13=Roger Miller - Me And Bobby McGee
TTITLE14=The Statler Brothers - Bed Of Roses
TTITLE15=Sammi Smith - Help Me Make It Through The Night
TTITLE16=Joan Baez - The Night They Drove Old Dixie Down
TTITLE17=Tom T Hall - Pamela Brown
TTITLE18=Donna Fargo - The Happiest Girl In The Whole U S A
TTITLE19=Conway Twitty - You've Never Been This Far Before
EXTD=
EXTT0=
EXTT1=
EXTT2=
EXTT3=
EXTT4=
EXTT5=
EXTT6=
EXTT7=
EXTT8=
EXTT9=
EXTT10=
EXTT11=
EXTT12=
EXTT13=
EXTT14=
EXTT15=
EXTT16=
EXTT17=
EXTT18=
EXTT19=
PLAYORDER=
